# xmcd
#
# Track frame offsets:
#       150
#       27376
#       47203
#       72604
#       94267
#       110806
#       137424
#       146822
#       178196
#       197273
#       223564
#       235503
#       274842
#       295738
#       317977
#
# Disc length: 4526 seconds
#
# Revision: 3
# Processed by: cddbd v1.5.2PL0 Copyright (c) Steve Scherf et al.
# Submitted via: FreeDbEdit v0.1
#
DISCID=ec11ac0f
DTITLE=Various Artist - Narada Decade - The Anniversary Collection [CD1]
DYEAR=1900
DGENRE=
TTITLE0=Cristofori's Dream
TTITLE1=In the Court of the Mermaid
TTITLE2=Shenandoah
TTITLE3=Tomorrow's Child
TTITLE4=Moon Run
TTITLE5=Girl From Barcelona
TTITLE6=Part 1
TTITLE7=Hillside View
TTITLE8=Leaves on the Seine
TTITLE9=Sonho
TTITLE10=Circus
TTITLE11=Water's Edge
TTITLE12=Oaks
TTITLE13=All the Way Home
TTITLE14=Carnation Lily Lily Rose
EXTD=
EXTT0=
EXTT1=
EXTT2=
EXTT3=
EXTT4=
EXTT5=
EXTT6=edit
EXTT7=
EXTT8=
EXTT9=Dream
EXTT10=
EXTT11=
EXTT12=
EXTT13=
EXTT14=
PLAYORDER=
